<svg width="100%" viewBox="0 0 1400 906" version="1.1" xmlns="http://www.w3.org/2000/svg" xmlns:xlink="http://www.w3.org/1999/xlink" xml:space="preserve" xmlns:serif="http://www.serif.com/" style="fill-rule:evenodd;clip-rule:evenodd;stroke-linejoin:round;stroke-miterlimit:2;">
    <g id="Back" transform="matrix(1.28788,0,0,1.28788,30.7076,19.8707)">
        <path id="BG" d="M1039.37,16.637C1039.37,7.455 1032.17,0 1023.3,0L16.068,0C7.2,0 -0,7.455 -0,16.637L-0,655.894C-0,665.076 7.2,672.53 16.068,672.53L1023.3,672.53C1032.17,672.53 1039.37,665.076 1039.37,655.894L1039.37,16.637Z" style="fill:rgb(47,49,57);stroke:rgb(70,73,79);stroke-width:6.47px;"/>
        <g transform="matrix(0.776467,0,0,0.776467,-10.9645,26.1799)">
            <g transform="matrix(50,0,0,50,791.454,421.044)">
            </g>
            <text x="680.224px" y="421.044px" style="font-family:'ArialMT', 'Arial', sans-serif;font-size:50px;fill:white;">{ASS_NUMBER}</text>
        </g>
        <g transform="matrix(0.776467,0,0,0.776467,191.136,27.1706)">
            <g transform="matrix(50,0,0,50,930.468,421.044)">
            </g>
            <text x="680.224px" y="421.044px" style="font-family:'ArialMT', 'Arial', sans-serif;font-size:50px;fill:white;">{FROM_DT}</text>
        </g>
        <g transform="matrix(0.776467,0,0,0.776467,-467.671,202.522)">
            <g transform="matrix(50,0,0,50,1064.72,421.044)">
            </g>
            <text text-anchor="start" x="680.224px" y="421.044px" style="font-family:'ArialMT', 'Arial', sans-serif;font-size:50px;fill:white;">{USER_NAME}</text>
        </g>
        <!--<g transform="matrix(0.776467,0,0,0.776467,-1.1632,-0.776314)">
            <rect x="659.677" y="415.539" width="128.917" height="45.97" style="fill:none;stroke:rgb(119,119,119);stroke-opacity:0.25;stroke-width:4.17px;stroke-linecap:round;stroke-miterlimit:1.5;"/>
        </g>
        <g transform="matrix(1.47596,0,0,0.776467,-254.21,-0.776314)">
            <rect x="659.677" y="415.539" width="128.917" height="45.97" style="fill:none;stroke:rgb(119,119,119);stroke-opacity:0.25;stroke-width:2.74px;stroke-linecap:round;stroke-miterlimit:1.5;"/>
        </g>
        <g transform="matrix(3.917,0,0,0.911505,-2526.62,115.537)">
            <rect x="659.677" y="415.539" width="128.917" height="45.97" style="fill:none;stroke:rgb(119,119,119);stroke-opacity:0.25;stroke-width:1.14px;stroke-linecap:round;stroke-miterlimit:1.5;"/>
        </g>
        -->
        <g id="Labels" transform="matrix(1.33939,0,0,1.24651,-99.1152,-160.134)">
            <path id="line" d="M68.68,374.867L850,374.867" style="fill:none;stroke:url(#_Linear2);stroke-width:1.61px;stroke-linecap:round;stroke-miterlimit:1.5;"/>
            <g id="NOME" transform="matrix(0.757561,0,0,0.814009,118.423,500.625)">
                <text x="0px" y="0px" style="font-family:'Arial-Black', 'Arial', sans-serif;font-weight:900;font-size:24.639px;fill:white;fill-opacity:0.49;">NOME</text>
            </g>
            <g id="SOCIO-N-" serif:id="SOCIO Nº" transform="matrix(0.964705,0,0,1.03659,457.171,361.036)">
                <text x="0px" y="0px" style="font-family:'Arial-Black', 'Arial', sans-serif;font-weight:900;font-size:19.349px;fill:white;fill-opacity:0.49;">N&ordm; ASSOCIADO</text>
            </g>
            <g id="DATA-ADMISSAO" serif:id="DATA ADMISSAO" transform="matrix(0.964705,0,0,1.03659,0,0)">
                <g transform="matrix(1,0,0,1,635.846,348.293)">
                    <text x="0px" y="0px" style="font-family:'Arial-Black', 'Arial', sans-serif;font-weight:900;font-size:19.349px;fill:white;fill-opacity:0.49;">D<tspan x="14.219px " y="0px ">A</tspan></text>
                </g>
                <g transform="matrix(1,0,0,1,662.72,348.293)">
                    <text x="0px" y="0px" style="font-family:'Arial-Black', 'Arial', sans-serif;font-weight:900;font-size:19.349px;fill:white;fill-opacity:0.49;">T<tspan x="9.326px 23.295px " y="0px 0px ">A </tspan>DE ADMISSÃO</text>
                </g>
            </g>
        </g>
        <g id="INERCIA" transform="matrix(0.206834,0,0,0.206834,801.047,86.1031)">
            <g id="path91" transform="matrix(4.16667,0,0,4.16667,-1495.59,-167.485)">
                <path d="M357.97,74.89C354.8,63.13 334.39,64.99 308.07,70.34C309.97,61.94 312.73,46.62 312.73,46.62C339.67,47.31 353.16,50.8 360.07,56.28C360.07,56.28 360.08,56.28 360.08,56.29C366.06,61.96 362.38,69.47 357.97,74.89Z" style="fill:none;fill-rule:nonzero;stroke:url(#_Linear3);stroke-width:2.42px;"/>
            </g>
            <g id="path87" transform="matrix(4.16667,0,0,4.16667,-1495.59,-167.485)">
                <path d="M527.46,94.75L472.29,143.08L479.35,109.55L543.21,52.89L527.46,94.75Z" style="fill:none;fill-rule:nonzero;stroke:url(#_Linear4);stroke-width:2.42px;"/>
            </g>
            <g id="path95" transform="matrix(4.16667,0,0,4.16667,-1495.59,-167.485)">
                <path d="M407.23,153.46C340.07,155.62 303.27,135.22 295.1,124.13C294.13,122.63 293.21,121 294.57,119.9C296.83,117.86 317.58,119.48 325.05,117.95C332.47,123.41 337.09,126.74 359.49,129.99C367.55,139.36 392.15,151.48 407.23,153.46Z" style="fill:none;fill-rule:nonzero;stroke:url(#_Linear5);stroke-width:2.42px;"/>
            </g>
            <g id="path99" transform="matrix(4.16667,0,0,4.16667,-1495.59,-167.485)">
                <path d="M490.1,63.8L485.93,77.51L470.98,87.1C469.7,83 468.18,78.96 466.47,75.01C467.15,79.46 468.07,83.87 469.23,88.21L469.23,88.22L467.66,89.23L462.31,69.31L462.8,67.17C467.49,63.8 490.1,63.8 490.1,63.8Z" style="fill:none;fill-rule:nonzero;stroke:url(#_Linear6);stroke-width:2.42px;"/>
            </g>
            <g id="path103" transform="matrix(4.16667,0,0,4.16667,-1495.59,-167.485)">
                <path d="M310.99,46.63L284.36,134.19L284.33,134.29L256.06,150.04L253.72,151.34L255.31,145.96L255.31,145.95C256.74,142.6 279.66,63.63 279.66,63.63L310.99,46.63Z" style="fill:none;fill-rule:nonzero;stroke:url(#_Linear7);stroke-width:2.42px;"/>
            </g>
            <g id="path107" transform="matrix(4.16667,0,0,4.16667,-1495.59,-167.485)">
                <path d="M475.91,110.46L470.68,127.67C470.67,127.69 463.19,151.11 463.19,151.11L443.09,134.29L453.76,98.24L465.88,90.38C467.22,94.3 468.73,98.17 470.41,101.95C469.65,97.69 468.8,93.4 467.66,89.23L469.23,88.22C470.02,91.18 470.92,94.11 471.94,97C471.94,97.03 471.95,97.06 471.96,97.08L475.91,110.46Z" style="fill:none;fill-rule:nonzero;stroke:url(#_Linear8);stroke-width:2.42px;"/>
            </g>
            <g id="path111" transform="matrix(4.16667,0,0,4.16667,-1495.59,-167.485)">
                <path d="M569.57,63.37L535.24,175.39L514.75,159.09L547.75,48.66L569.57,63.37Z" style="fill:none;fill-rule:nonzero;stroke:url(#_Linear9);stroke-width:2.42px;"/>
            </g>
            <g id="path115" transform="matrix(4.16667,0,0,4.16667,-1495.59,-167.485)">
                <path d="M364.66,66.71C364.66,70.31 363.94,93.57 363.91,94.46C363.79,97.78 362.28,100.56 359.77,102.9C355.33,107.09 347.73,109.91 339.08,111.94C339.07,111.95 339.05,111.95 339.04,111.95C317.21,116.45 295.68,112.97 294.31,116.92C295.38,113.83 297.52,105.16 299.65,99.67C301.78,94.29 357.97,100.79 364.66,66.71Z" style="fill:none;fill-rule:nonzero;stroke:url(#_Linear10);stroke-width:2.42px;"/>
            </g>
            <g id="path119" transform="matrix(4.16667,0,0,4.16667,-1495.59,-167.485)">
                <path d="M489.49,62.5C417.36,55.53 323.68,130.09 435.66,132.46C424.66,142.82 419.47,147.34 412.16,153.46C296.52,119.66 409.25,43 468.38,45.07C471.17,47.31 486.49,60.1 489.49,62.5Z" style="fill:none;fill-rule:nonzero;stroke:url(#_Linear11);stroke-width:2.42px;"/>
            </g>
            <g id="path123" transform="matrix(4.16667,0,0,4.16667,-1495.59,-167.485)">
                <path d="M124.39,150.34L111.19,108.31L123.66,48.63L137.83,92.6L124.39,150.34Z" style="fill:none;fill-rule:nonzero;stroke:url(#_Linear12);stroke-width:2.42px;"/>
            </g>
            <g id="path127" transform="matrix(4.16667,0,0,4.16667,-1495.59,-167.485)">
                <path d="M173.21,89.03C173.41,88.4 185.69,54.34 185.69,54.34C186.5,57.31 187.72,59.11 188.55,60.79C181.08,68.37 174.8,85.6 173.21,89.03Z" style="fill:none;fill-rule:nonzero;stroke:url(#_Linear13);stroke-width:2.42px;"/>
            </g>
            <g id="path131" transform="matrix(4.16667,0,0,4.16667,-1495.59,-167.485)">
                <path d="M271.04,82.61C271.26,104.76 243.76,135.02 202.1,111.14C201.17,104.3 204.34,95.33 207.6,89.61C234.2,116.22 264.38,95.58 262.01,71.7C265.96,74.28 269.74,77.41 271.04,82.61Z" style="fill:none;fill-rule:nonzero;stroke:url(#_Linear14);stroke-width:2.42px;"/>
            </g>
            <g id="path147" transform="matrix(4.16667,0,0,4.16667,-1495.59,-167.485)">
                <path d="M183.66,46.63L156.99,134.29L126.39,151.34L129.33,141.4L129.33,141.39C134.3,127.27 149.5,75.38 152.33,63.63L183.66,46.63Z" style="fill:none;fill-rule:nonzero;stroke:url(#_Linear15);stroke-width:2.42px;"/>
            </g>
            <g id="path151" transform="matrix(4.16667,0,0,4.16667,-1495.59,-167.485)">
                <path d="M252.86,151.66C222.47,163.28 164.66,145.96 172.41,101.21C173.16,97.42 174.07,93.9 175.13,90.62C178.8,79.17 184.51,70.98 190.55,64.53C215.79,37.59 247.25,49.17 250.66,50.09C254.98,51.26 271.32,61.05 271.29,76.72C271.11,76.35 266.69,69.21 257.77,65.56L257.77,65.57C242.95,60.09 200.32,67.62 198.99,109.9C198.1,138.14 239.68,137.27 254.85,132.93C254.55,136.62 252.86,151.66 252.86,151.66Z" style="fill:none;fill-rule:nonzero;stroke:url(#_Linear16);stroke-width:2.42px;"/>
            </g>
            <g id="path155" transform="matrix(4.16667,0,0,4.16667,-1495.59,-167.485)">
                <path d="M68.01,81.62L46.81,151.34L26.43,134.29L45.13,71.05L57.87,62.65C57.87,62.65 61.98,70.48 63.84,74.77C63.06,69.94 61.99,65.15 60.61,60.45L62.24,59.34L68.01,81.62Z" style="fill:none;fill-rule:nonzero;stroke:url(#_Linear17);stroke-width:2.42px;"/>
            </g>
            <g id="path135" transform="matrix(4.16667,0,0,4.16667,-1495.59,-167.485)">
                <path d="M63.39,151.34L48.81,151.34L60.96,123.7L67.76,123.7L63.39,151.34Z" style="fill:none;fill-rule:nonzero;stroke:url(#_Linear18);stroke-width:2.42px;"/>
            </g>
            <g id="path139" transform="matrix(4.16667,0,0,4.16667,-1495.59,-167.485)">
                <path d="M88.99,10.46L79.06,46.63L64.92,57.07C64.92,57.07 60.62,49.47 58.55,45.36C59.43,50.11 60.7,54.77 62.24,59.34L60.61,60.45L60.07,58.66L58.44,53.81L54.96,43.43L61.21,24.29L88.99,10.46Z" style="fill:none;fill-rule:nonzero;stroke:url(#_Linear19);stroke-width:2.42px;"/>
            </g>
            <g id="path143" transform="matrix(4.16667,0,0,4.16667,-1495.59,-167.485)">
                <path d="M122.66,46.63C122.66,46.63 98.54,125.74 95.9,134.27L95.99,134.29L65.39,151.34L91.33,63.63L122.66,46.63Z" style="fill:none;fill-rule:nonzero;stroke:url(#_Linear20);stroke-width:2.42px;"/>
            </g>
            <g id="Associacao" transform="matrix(5.46279,0,0,3.53584,-2360.01,-411.913)">
                <g id="g46" transform="matrix(23.3204,0,0,36.0294,242.768,109.238)">
                    <path id="path44" d="M0.308,-0.708L0.417,-0.708L0.722,0L0.578,0L0.512,-0.162L0.205,-0.162L0.141,0L0,0L0.308,-0.708ZM0.468,-0.27L0.359,-0.558L0.248,-0.27L0.468,-0.27Z" style="fill:white;fill-rule:nonzero;"/>
                </g>
                <g id="g50" transform="matrix(23.3204,0,0,36.0294,280.594,109.238)">
                    <path id="path48" d="M0.426,-0.556C0.413,-0.575 0.395,-0.59 0.373,-0.599C0.35,-0.608 0.327,-0.612 0.302,-0.612C0.287,-0.612 0.273,-0.61 0.26,-0.607C0.246,-0.604 0.234,-0.598 0.223,-0.591C0.212,-0.584 0.203,-0.574 0.196,-0.563C0.189,-0.551 0.186,-0.537 0.186,-0.521C0.186,-0.497 0.194,-0.479 0.211,-0.466C0.228,-0.453 0.248,-0.442 0.273,-0.433C0.298,-0.424 0.325,-0.415 0.354,-0.406C0.383,-0.397 0.41,-0.385 0.435,-0.37C0.46,-0.355 0.48,-0.334 0.497,-0.309C0.514,-0.284 0.522,-0.25 0.522,-0.208C0.522,-0.17 0.515,-0.137 0.501,-0.109C0.487,-0.08 0.468,-0.057 0.445,-0.038C0.421,-0.019 0.393,-0.005 0.362,0.004C0.331,0.013 0.298,0.018 0.263,0.018C0.219,0.018 0.177,0.011 0.136,-0.004C0.095,-0.019 0.06,-0.043 0.031,-0.078L0.126,-0.17C0.141,-0.147 0.162,-0.129 0.187,-0.116C0.212,-0.102 0.238,-0.096 0.266,-0.096C0.281,-0.096 0.295,-0.098 0.31,-0.102C0.325,-0.106 0.338,-0.112 0.35,-0.12C0.362,-0.128 0.372,-0.138 0.379,-0.151C0.386,-0.163 0.39,-0.177 0.39,-0.193C0.39,-0.219 0.382,-0.239 0.365,-0.253C0.348,-0.267 0.328,-0.279 0.303,-0.289C0.278,-0.298 0.251,-0.307 0.222,-0.316C0.193,-0.325 0.166,-0.337 0.141,-0.352C0.116,-0.367 0.096,-0.387 0.079,-0.412C0.062,-0.437 0.054,-0.47 0.054,-0.512C0.054,-0.549 0.062,-0.58 0.077,-0.607C0.092,-0.634 0.111,-0.656 0.136,-0.674C0.16,-0.691 0.188,-0.704 0.219,-0.713C0.25,-0.722 0.282,-0.726 0.315,-0.726C0.352,-0.726 0.389,-0.72 0.424,-0.709C0.459,-0.698 0.49,-0.679 0.518,-0.653L0.426,-0.556Z" style="fill:white;fill-rule:nonzero;"/>
                </g>
                <g id="g54" transform="matrix(23.3204,0,0,36.0294,314.968,109.238)">
                    <path id="path52" d="M0.426,-0.556C0.413,-0.575 0.395,-0.59 0.373,-0.599C0.35,-0.608 0.327,-0.612 0.302,-0.612C0.287,-0.612 0.273,-0.61 0.26,-0.607C0.246,-0.604 0.234,-0.598 0.223,-0.591C0.212,-0.584 0.203,-0.574 0.196,-0.563C0.189,-0.551 0.186,-0.537 0.186,-0.521C0.186,-0.497 0.194,-0.479 0.211,-0.466C0.228,-0.453 0.248,-0.442 0.273,-0.433C0.298,-0.424 0.325,-0.415 0.354,-0.406C0.383,-0.397 0.41,-0.385 0.435,-0.37C0.46,-0.355 0.48,-0.334 0.497,-0.309C0.514,-0.284 0.522,-0.25 0.522,-0.208C0.522,-0.17 0.515,-0.137 0.501,-0.109C0.487,-0.08 0.468,-0.057 0.445,-0.038C0.421,-0.019 0.393,-0.005 0.362,0.004C0.331,0.013 0.298,0.018 0.263,0.018C0.219,0.018 0.177,0.011 0.136,-0.004C0.095,-0.019 0.06,-0.043 0.031,-0.078L0.126,-0.17C0.141,-0.147 0.162,-0.129 0.187,-0.116C0.212,-0.102 0.238,-0.096 0.266,-0.096C0.281,-0.096 0.295,-0.098 0.31,-0.102C0.325,-0.106 0.338,-0.112 0.35,-0.12C0.362,-0.128 0.372,-0.138 0.379,-0.151C0.386,-0.163 0.39,-0.177 0.39,-0.193C0.39,-0.219 0.382,-0.239 0.365,-0.253C0.348,-0.267 0.328,-0.279 0.303,-0.289C0.278,-0.298 0.251,-0.307 0.222,-0.316C0.193,-0.325 0.166,-0.337 0.141,-0.352C0.116,-0.367 0.096,-0.387 0.079,-0.412C0.062,-0.437 0.054,-0.47 0.054,-0.512C0.054,-0.549 0.062,-0.58 0.077,-0.607C0.092,-0.634 0.111,-0.656 0.136,-0.674C0.16,-0.691 0.188,-0.704 0.219,-0.713C0.25,-0.722 0.282,-0.726 0.315,-0.726C0.352,-0.726 0.389,-0.72 0.424,-0.709C0.459,-0.698 0.49,-0.679 0.518,-0.653L0.426,-0.556Z" style="fill:white;fill-rule:nonzero;"/>
                </g>
                <g id="g58" transform="matrix(23.3204,0,0,36.0294,349.343,109.238)">
                    <path id="path56" d="M0.041,-0.351C0.041,-0.408 0.05,-0.459 0.069,-0.506C0.088,-0.552 0.114,-0.591 0.147,-0.624C0.18,-0.657 0.219,-0.682 0.265,-0.7C0.31,-0.717 0.36,-0.726 0.415,-0.726C0.47,-0.727 0.521,-0.719 0.567,-0.702C0.613,-0.685 0.653,-0.66 0.686,-0.627C0.719,-0.594 0.745,-0.555 0.764,-0.509C0.783,-0.463 0.792,-0.412 0.792,-0.355C0.792,-0.3 0.783,-0.249 0.764,-0.204C0.745,-0.159 0.719,-0.12 0.686,-0.087C0.653,-0.054 0.613,-0.029 0.567,-0.011C0.521,0.008 0.47,0.017 0.415,0.018C0.36,0.018 0.31,0.009 0.265,-0.009C0.219,-0.026 0.18,-0.051 0.147,-0.084C0.114,-0.116 0.088,-0.155 0.069,-0.2C0.05,-0.245 0.041,-0.296 0.041,-0.351ZM0.173,-0.359C0.173,-0.321 0.179,-0.286 0.191,-0.254C0.202,-0.222 0.219,-0.194 0.24,-0.171C0.261,-0.148 0.287,-0.129 0.317,-0.116C0.346,-0.103 0.379,-0.096 0.416,-0.096C0.453,-0.096 0.486,-0.103 0.516,-0.116C0.546,-0.129 0.572,-0.148 0.593,-0.171C0.614,-0.194 0.631,-0.222 0.643,-0.254C0.654,-0.286 0.66,-0.321 0.66,-0.359C0.66,-0.394 0.654,-0.427 0.643,-0.458C0.631,-0.489 0.614,-0.516 0.593,-0.539C0.572,-0.562 0.546,-0.58 0.516,-0.593C0.486,-0.606 0.453,-0.612 0.416,-0.612C0.379,-0.612 0.346,-0.606 0.317,-0.593C0.287,-0.58 0.261,-0.562 0.24,-0.539C0.219,-0.516 0.202,-0.489 0.191,-0.458C0.179,-0.427 0.173,-0.394 0.173,-0.359Z" style="fill:white;fill-rule:nonzero;"/>
                </g>
                <g id="g62" transform="matrix(23.3204,0,0,36.0294,389.757,109.238)">
                    <path id="path60" d="M0.565,-0.542C0.539,-0.57 0.514,-0.589 0.49,-0.598C0.465,-0.607 0.441,-0.612 0.416,-0.612C0.379,-0.612 0.346,-0.606 0.317,-0.593C0.287,-0.58 0.261,-0.562 0.24,-0.539C0.219,-0.516 0.202,-0.489 0.191,-0.458C0.179,-0.427 0.173,-0.394 0.173,-0.359C0.173,-0.321 0.179,-0.286 0.191,-0.254C0.202,-0.222 0.219,-0.194 0.24,-0.171C0.261,-0.148 0.287,-0.129 0.317,-0.116C0.346,-0.103 0.379,-0.096 0.416,-0.096C0.445,-0.096 0.472,-0.103 0.5,-0.117C0.527,-0.13 0.552,-0.152 0.575,-0.182L0.679,-0.108C0.647,-0.064 0.608,-0.032 0.562,-0.012C0.516,0.008 0.467,0.018 0.415,0.018C0.36,0.018 0.31,0.009 0.265,-0.009C0.219,-0.026 0.18,-0.051 0.147,-0.084C0.114,-0.116 0.088,-0.155 0.069,-0.2C0.05,-0.245 0.041,-0.296 0.041,-0.351C0.041,-0.408 0.05,-0.459 0.069,-0.506C0.088,-0.552 0.114,-0.591 0.147,-0.624C0.18,-0.657 0.219,-0.682 0.265,-0.7C0.31,-0.717 0.36,-0.726 0.415,-0.726C0.463,-0.726 0.507,-0.717 0.549,-0.701C0.59,-0.684 0.628,-0.655 0.663,-0.614L0.565,-0.542Z" style="fill:white;fill-rule:nonzero;"/>
                </g>
                <g id="g66" transform="matrix(23.3204,0,0,36.0294,426.72,109.238)">
                    <rect id="rect64" x="0.076" y="-0.708" width="0.126" height="0.708" style="fill:white;"/>
                </g>
                <g id="g70" transform="matrix(23.3204,0,0,36.0294,454.191,109.238)">
                    <path id="path68" d="M0.308,-0.708L0.417,-0.708L0.722,0L0.578,0L0.512,-0.162L0.205,-0.162L0.141,0L0,0L0.308,-0.708ZM0.468,-0.27L0.359,-0.558L0.248,-0.27L0.468,-0.27Z" style="fill:white;fill-rule:nonzero;"/>
                </g>
                <g id="g74" transform="matrix(23.3204,0,0,36.0294,492.017,109.238)">
                    <path id="path72" d="M0.565,-0.542C0.539,-0.57 0.514,-0.589 0.49,-0.598C0.465,-0.607 0.441,-0.612 0.416,-0.612C0.379,-0.612 0.346,-0.606 0.317,-0.593C0.287,-0.58 0.261,-0.562 0.24,-0.539C0.219,-0.516 0.202,-0.489 0.191,-0.458C0.179,-0.427 0.173,-0.394 0.173,-0.359C0.173,-0.321 0.179,-0.286 0.191,-0.254C0.202,-0.222 0.219,-0.194 0.24,-0.171C0.261,-0.148 0.287,-0.129 0.317,-0.116C0.346,-0.103 0.379,-0.096 0.416,-0.096C0.445,-0.096 0.472,-0.103 0.5,-0.117C0.527,-0.13 0.552,-0.152 0.575,-0.182L0.679,-0.108C0.647,-0.064 0.609,-0.032 0.564,-0.013C0.519,0.007 0.471,0.017 0.419,0.018L0.39,0.06C0.405,0.06 0.419,0.061 0.434,0.062C0.448,0.063 0.461,0.067 0.473,0.073C0.484,0.078 0.494,0.087 0.501,0.098C0.507,0.109 0.511,0.124 0.511,0.143C0.511,0.161 0.507,0.176 0.498,0.189C0.489,0.202 0.477,0.212 0.464,0.219C0.451,0.226 0.436,0.232 0.419,0.235C0.402,0.238 0.387,0.24 0.372,0.24C0.335,0.24 0.299,0.231 0.266,0.212L0.288,0.166C0.313,0.179 0.341,0.186 0.37,0.186C0.375,0.186 0.381,0.185 0.388,0.184C0.395,0.183 0.401,0.181 0.407,0.178C0.412,0.175 0.417,0.17 0.421,0.165C0.425,0.159 0.427,0.152 0.427,0.144C0.427,0.131 0.421,0.121 0.41,0.116C0.398,0.111 0.387,0.108 0.376,0.108C0.369,0.108 0.363,0.109 0.357,0.11C0.351,0.111 0.345,0.113 0.339,0.115L0.312,0.09L0.363,0.015C0.315,0.01 0.271,-0.003 0.232,-0.023C0.193,-0.043 0.159,-0.069 0.131,-0.101C0.102,-0.132 0.08,-0.169 0.065,-0.212C0.049,-0.254 0.041,-0.3 0.041,-0.351C0.041,-0.408 0.05,-0.459 0.069,-0.506C0.088,-0.552 0.114,-0.591 0.147,-0.624C0.18,-0.657 0.219,-0.682 0.265,-0.7C0.31,-0.717 0.36,-0.726 0.415,-0.726C0.463,-0.726 0.507,-0.717 0.549,-0.701C0.59,-0.684 0.628,-0.655 0.663,-0.614L0.565,-0.542Z" style="fill:white;fill-rule:nonzero;"/>
                </g>
                <g id="g78" transform="matrix(23.3204,0,0,36.0294,528.98,109.238)">
                    <path id="path76" d="M0.308,-0.708L0.417,-0.708L0.722,0L0.578,0L0.512,-0.162L0.205,-0.162L0.141,0L0,0L0.308,-0.708ZM0.468,-0.27L0.359,-0.558L0.248,-0.27L0.468,-0.27ZM0.177,-0.76C0.18,-0.776 0.184,-0.792 0.189,-0.807C0.194,-0.822 0.2,-0.836 0.209,-0.848C0.218,-0.859 0.229,-0.869 0.242,-0.876C0.255,-0.883 0.27,-0.887 0.289,-0.887C0.302,-0.887 0.316,-0.885 0.33,-0.881C0.343,-0.877 0.356,-0.873 0.369,-0.869C0.382,-0.864 0.394,-0.86 0.405,-0.856C0.416,-0.852 0.425,-0.85 0.433,-0.85C0.446,-0.85 0.456,-0.854 0.464,-0.863C0.471,-0.871 0.476,-0.881 0.479,-0.892L0.545,-0.892C0.542,-0.876 0.539,-0.86 0.534,-0.845C0.529,-0.83 0.522,-0.816 0.513,-0.805C0.504,-0.793 0.494,-0.783 0.481,-0.776C0.468,-0.769 0.452,-0.765 0.433,-0.765C0.42,-0.765 0.406,-0.767 0.393,-0.771C0.379,-0.775 0.366,-0.779 0.353,-0.784C0.34,-0.789 0.329,-0.793 0.318,-0.797C0.307,-0.801 0.297,-0.803 0.289,-0.803C0.276,-0.803 0.266,-0.799 0.259,-0.79C0.252,-0.781 0.246,-0.771 0.243,-0.76L0.177,-0.76Z" style="fill:white;fill-rule:nonzero;"/>
                </g>
                <g id="g82" transform="matrix(23.3204,0,0,36.0294,566.806,109.238)">
                    <path id="path80" d="M0.041,-0.351C0.041,-0.408 0.05,-0.459 0.069,-0.506C0.088,-0.552 0.114,-0.591 0.147,-0.624C0.18,-0.657 0.219,-0.682 0.265,-0.7C0.31,-0.717 0.36,-0.726 0.415,-0.726C0.47,-0.727 0.521,-0.719 0.567,-0.702C0.613,-0.685 0.653,-0.66 0.686,-0.627C0.719,-0.594 0.745,-0.555 0.764,-0.509C0.783,-0.463 0.792,-0.412 0.792,-0.355C0.792,-0.3 0.783,-0.249 0.764,-0.204C0.745,-0.159 0.719,-0.12 0.686,-0.087C0.653,-0.054 0.613,-0.029 0.567,-0.011C0.521,0.008 0.47,0.017 0.415,0.018C0.36,0.018 0.31,0.009 0.265,-0.009C0.219,-0.026 0.18,-0.051 0.147,-0.084C0.114,-0.116 0.088,-0.155 0.069,-0.2C0.05,-0.245 0.041,-0.296 0.041,-0.351ZM0.173,-0.359C0.173,-0.321 0.179,-0.286 0.191,-0.254C0.202,-0.222 0.219,-0.194 0.24,-0.171C0.261,-0.148 0.287,-0.129 0.317,-0.116C0.346,-0.103 0.379,-0.096 0.416,-0.096C0.453,-0.096 0.486,-0.103 0.516,-0.116C0.546,-0.129 0.572,-0.148 0.593,-0.171C0.614,-0.194 0.631,-0.222 0.643,-0.254C0.654,-0.286 0.66,-0.321 0.66,-0.359C0.66,-0.394 0.654,-0.427 0.643,-0.458C0.631,-0.489 0.614,-0.516 0.593,-0.539C0.572,-0.562 0.546,-0.58 0.516,-0.593C0.486,-0.606 0.453,-0.612 0.416,-0.612C0.379,-0.612 0.346,-0.606 0.317,-0.593C0.287,-0.58 0.261,-0.562 0.24,-0.539C0.219,-0.516 0.202,-0.489 0.191,-0.458C0.179,-0.427 0.173,-0.394 0.173,-0.359Z" style="fill:white;fill-rule:nonzero;"/>
                </g>
            </g>
        </g>
       <!-- <g transform="matrix(2.25744,0,0,6.33007,-1427.78,-2567.75)">
            <rect x="659.677" y="415.539" width="128.917" height="45.97" style="fill:none;stroke:rgb(119,119,119);stroke-opacity:0.25;stroke-width:0.68px;stroke-linecap:round;stroke-miterlimit:1.5;"/>
        </g>
        -->
        <g id="avatar_badge.svg" transform="matrix(0.758075,0,0,0.758075,66,65)">
            <image height="370" width="370" href="{AVATAR_URL}"/>
        </g>
    </g>
    <defs>
        <linearGradient id="_Linear2" x1="0" y1="0" x2="1" y2="0" gradientUnits="userSpaceOnUse" gradientTransform="matrix(775.13,-8.47921e-06,8.47921e-06,775.13,74.7753,374.867)"><stop offset="0" style="stop-color:rgb(49,124,122);stop-opacity:1"/><stop offset="0.35" style="stop-color:rgb(181,169,111);stop-opacity:1"/><stop offset="0.71" style="stop-color:rgb(243,124,131);stop-opacity:1"/><stop offset="1" style="stop-color:rgb(149,36,87);stop-opacity:1"/></linearGradient>
        <linearGradient id="_Linear3" x1="0" y1="0" x2="1" y2="0" gradientUnits="userSpaceOnUse" gradientTransform="matrix(489.16,0,0,489.16,65.39,92.925)"><stop offset="0" style="stop-color:rgb(49,124,122);stop-opacity:1"/><stop offset="0.35" style="stop-color:rgb(181,169,111);stop-opacity:1"/><stop offset="0.71" style="stop-color:rgb(243,124,131);stop-opacity:1"/><stop offset="1" style="stop-color:rgb(149,36,87);stop-opacity:1"/></linearGradient>
        <linearGradient id="_Linear4" x1="0" y1="0" x2="1" y2="0" gradientUnits="userSpaceOnUse" gradientTransform="matrix(489.16,0,0,489.16,65.39,92.925)"><stop offset="0" style="stop-color:rgb(49,124,122);stop-opacity:1"/><stop offset="0.35" style="stop-color:rgb(181,169,111);stop-opacity:1"/><stop offset="0.71" style="stop-color:rgb(243,124,131);stop-opacity:1"/><stop offset="1" style="stop-color:rgb(149,36,87);stop-opacity:1"/></linearGradient>
        <linearGradient id="_Linear5" x1="0" y1="0" x2="1" y2="0" gradientUnits="userSpaceOnUse" gradientTransform="matrix(489.16,0,0,489.16,65.39,92.925)"><stop offset="0" style="stop-color:rgb(49,124,122);stop-opacity:1"/><stop offset="0.35" style="stop-color:rgb(181,169,111);stop-opacity:1"/><stop offset="0.71" style="stop-color:rgb(243,124,131);stop-opacity:1"/><stop offset="1" style="stop-color:rgb(149,36,87);stop-opacity:1"/></linearGradient>
        <linearGradient id="_Linear6" x1="0" y1="0" x2="1" y2="0" gradientUnits="userSpaceOnUse" gradientTransform="matrix(489.16,0,0,489.16,65.39,92.925)"><stop offset="0" style="stop-color:rgb(49,124,122);stop-opacity:1"/><stop offset="0.35" style="stop-color:rgb(181,169,111);stop-opacity:1"/><stop offset="0.71" style="stop-color:rgb(243,124,131);stop-opacity:1"/><stop offset="1" style="stop-color:rgb(149,36,87);stop-opacity:1"/></linearGradient>
        <linearGradient id="_Linear7" x1="0" y1="0" x2="1" y2="0" gradientUnits="userSpaceOnUse" gradientTransform="matrix(489.16,0,0,489.16,65.39,92.925)"><stop offset="0" style="stop-color:rgb(49,124,122);stop-opacity:1"/><stop offset="0.35" style="stop-color:rgb(181,169,111);stop-opacity:1"/><stop offset="0.71" style="stop-color:rgb(243,124,131);stop-opacity:1"/><stop offset="1" style="stop-color:rgb(149,36,87);stop-opacity:1"/></linearGradient>
        <linearGradient id="_Linear8" x1="0" y1="0" x2="1" y2="0" gradientUnits="userSpaceOnUse" gradientTransform="matrix(489.16,0,0,489.16,65.39,92.925)"><stop offset="0" style="stop-color:rgb(49,124,122);stop-opacity:1"/><stop offset="0.35" style="stop-color:rgb(181,169,111);stop-opacity:1"/><stop offset="0.71" style="stop-color:rgb(243,124,131);stop-opacity:1"/><stop offset="1" style="stop-color:rgb(149,36,87);stop-opacity:1"/></linearGradient>
        <linearGradient id="_Linear9" x1="0" y1="0" x2="1" y2="0" gradientUnits="userSpaceOnUse" gradientTransform="matrix(489.16,0,0,489.16,65.39,92.925)"><stop offset="0" style="stop-color:rgb(49,124,122);stop-opacity:1"/><stop offset="0.35" style="stop-color:rgb(181,169,111);stop-opacity:1"/><stop offset="0.71" style="stop-color:rgb(243,124,131);stop-opacity:1"/><stop offset="1" style="stop-color:rgb(149,36,87);stop-opacity:1"/></linearGradient>
        <linearGradient id="_Linear10" x1="0" y1="0" x2="1" y2="0" gradientUnits="userSpaceOnUse" gradientTransform="matrix(489.16,0,0,489.16,65.39,92.925)"><stop offset="0" style="stop-color:rgb(49,124,122);stop-opacity:1"/><stop offset="0.35" style="stop-color:rgb(181,169,111);stop-opacity:1"/><stop offset="0.71" style="stop-color:rgb(243,124,131);stop-opacity:1"/><stop offset="1" style="stop-color:rgb(149,36,87);stop-opacity:1"/></linearGradient>
        <linearGradient id="_Linear11" x1="0" y1="0" x2="1" y2="0" gradientUnits="userSpaceOnUse" gradientTransform="matrix(489.16,0,0,489.16,65.39,92.925)"><stop offset="0" style="stop-color:rgb(49,124,122);stop-opacity:1"/><stop offset="0.35" style="stop-color:rgb(181,169,111);stop-opacity:1"/><stop offset="0.71" style="stop-color:rgb(243,124,131);stop-opacity:1"/><stop offset="1" style="stop-color:rgb(149,36,87);stop-opacity:1"/></linearGradient>
        <linearGradient id="_Linear12" x1="0" y1="0" x2="1" y2="0" gradientUnits="userSpaceOnUse" gradientTransform="matrix(489.16,0,0,489.16,65.39,92.925)"><stop offset="0" style="stop-color:rgb(49,124,122);stop-opacity:1"/><stop offset="0.35" style="stop-color:rgb(181,169,111);stop-opacity:1"/><stop offset="0.71" style="stop-color:rgb(243,124,131);stop-opacity:1"/><stop offset="1" style="stop-color:rgb(149,36,87);stop-opacity:1"/></linearGradient>
        <linearGradient id="_Linear13" x1="0" y1="0" x2="1" y2="0" gradientUnits="userSpaceOnUse" gradientTransform="matrix(489.16,0,0,489.16,65.39,92.925)"><stop offset="0" style="stop-color:rgb(49,124,122);stop-opacity:1"/><stop offset="0.35" style="stop-color:rgb(181,169,111);stop-opacity:1"/><stop offset="0.71" style="stop-color:rgb(243,124,131);stop-opacity:1"/><stop offset="1" style="stop-color:rgb(149,36,87);stop-opacity:1"/></linearGradient>
        <linearGradient id="_Linear14" x1="0" y1="0" x2="1" y2="0" gradientUnits="userSpaceOnUse" gradientTransform="matrix(489.16,0,0,489.16,65.39,92.925)"><stop offset="0" style="stop-color:rgb(49,124,122);stop-opacity:1"/><stop offset="0.35" style="stop-color:rgb(181,169,111);stop-opacity:1"/><stop offset="0.71" style="stop-color:rgb(243,124,131);stop-opacity:1"/><stop offset="1" style="stop-color:rgb(149,36,87);stop-opacity:1"/></linearGradient>
        <linearGradient id="_Linear15" x1="0" y1="0" x2="1" y2="0" gradientUnits="userSpaceOnUse" gradientTransform="matrix(489.16,0,0,489.16,65.39,92.925)"><stop offset="0" style="stop-color:rgb(49,124,122);stop-opacity:1"/><stop offset="0.35" style="stop-color:rgb(181,169,111);stop-opacity:1"/><stop offset="0.71" style="stop-color:rgb(243,124,131);stop-opacity:1"/><stop offset="1" style="stop-color:rgb(149,36,87);stop-opacity:1"/></linearGradient>
        <linearGradient id="_Linear16" x1="0" y1="0" x2="1" y2="0" gradientUnits="userSpaceOnUse" gradientTransform="matrix(489.16,0,0,489.16,65.39,92.925)"><stop offset="0" style="stop-color:rgb(49,124,122);stop-opacity:1"/><stop offset="0.35" style="stop-color:rgb(181,169,111);stop-opacity:1"/><stop offset="0.71" style="stop-color:rgb(243,124,131);stop-opacity:1"/><stop offset="1" style="stop-color:rgb(149,36,87);stop-opacity:1"/></linearGradient>
        <linearGradient id="_Linear17" x1="0" y1="0" x2="1" y2="0" gradientUnits="userSpaceOnUse" gradientTransform="matrix(489.16,0,0,489.16,65.39,92.925)"><stop offset="0" style="stop-color:rgb(49,124,122);stop-opacity:1"/><stop offset="0.35" style="stop-color:rgb(181,169,111);stop-opacity:1"/><stop offset="0.71" style="stop-color:rgb(243,124,131);stop-opacity:1"/><stop offset="1" style="stop-color:rgb(149,36,87);stop-opacity:1"/></linearGradient>
        <linearGradient id="_Linear18" x1="0" y1="0" x2="1" y2="0" gradientUnits="userSpaceOnUse" gradientTransform="matrix(489.16,0,0,489.16,65.39,92.925)"><stop offset="0" style="stop-color:rgb(49,124,122);stop-opacity:1"/><stop offset="0.35" style="stop-color:rgb(181,169,111);stop-opacity:1"/><stop offset="0.71" style="stop-color:rgb(243,124,131);stop-opacity:1"/><stop offset="1" style="stop-color:rgb(149,36,87);stop-opacity:1"/></linearGradient>
        <linearGradient id="_Linear19" x1="0" y1="0" x2="1" y2="0" gradientUnits="userSpaceOnUse" gradientTransform="matrix(489.16,0,0,489.16,65.39,92.925)"><stop offset="0" style="stop-color:rgb(49,124,122);stop-opacity:1"/><stop offset="0.35" style="stop-color:rgb(181,169,111);stop-opacity:1"/><stop offset="0.71" style="stop-color:rgb(243,124,131);stop-opacity:1"/><stop offset="1" style="stop-color:rgb(149,36,87);stop-opacity:1"/></linearGradient>
        <linearGradient id="_Linear20" x1="0" y1="0" x2="1" y2="0" gradientUnits="userSpaceOnUse" gradientTransform="matrix(489.16,0,0,489.16,65.39,92.925)"><stop offset="0" style="stop-color:rgb(49,124,122);stop-opacity:1"/><stop offset="0.35" style="stop-color:rgb(181,169,111);stop-opacity:1"/><stop offset="0.71" style="stop-color:rgb(243,124,131);stop-opacity:1"/><stop offset="1" style="stop-color:rgb(149,36,87);stop-opacity:1"/></linearGradient>
    </defs>
</svg>