<?xml version="1.0" encoding="UTF-8" standalone="no"?>
<!DOCTYPE svg PUBLIC "-//W3C//DTD SVG 1.1//EN" "http://www.w3.org/Graphics/SVG/1.1/DTD/svg11.dtd">
<svg width="100%" height="100%" viewBox="0 0 1200 193" version="1.1" xmlns="http://www.w3.org/2000/svg" xmlns:xlink="http://www.w3.org/1999/xlink" xml:space="preserve" xmlns:serif="http://www.serif.com/" style="fill-rule:evenodd;clip-rule:evenodd;stroke-linejoin:round;stroke-miterlimit:2;">
    <g transform="matrix(1,0,0,1,-6600.3,-7104)">
        <rect x="6601.1" y="7104" width="1198.9" height="192.1" style="fill:rgb(15,25,77);"/>
    </g>
    <g transform="matrix(1,0,0,1,-6600.3,-7104)">
        <path d="M6825.6,7246C6818.1,7246 6812.4,7243.8 6808.5,7239.4L6815.8,7232.9C6818.3,7235.6 6822.1,7237 6827.2,7237.1L6827.3,7237.1C6831.3,7237.1 6834.6,7235.9 6837.4,7233.4C6839.6,7231.4 6840.9,7229 6841.2,7226.3C6841.8,7221 6838.3,7216.8 6830.9,7213.6L6830.4,7213.4C6826.2,7211.6 6823.3,7210 6821.6,7208.4C6818.7,7205.7 6817.4,7202.2 6817.8,7198C6818.1,7194.2 6819.7,7190.8 6822.6,7187.6C6825.5,7184.5 6829,7182.5 6832.9,7181.5C6840.9,7179.7 6847.5,7181.5 6852.9,7187.1L6845.9,7193.7C6842.5,7190.2 6838.3,7189 6833.5,7190.1C6831.9,7190.5 6830.4,7191.3 6829.2,7192.5C6827.8,7193.9 6827,7195.5 6826.8,7197.2C6826.7,7199 6827.3,7200.5 6828.6,7201.7C6829.7,7202.6 6831.9,7203.8 6835.2,7205.2L6835.7,7205.4C6846.4,7210 6851.2,7216.7 6850.2,7225.7C6849.6,7231 6847.1,7235.6 6842.7,7239.5C6837.8,7243.8 6832.1,7246 6825.6,7246Z" style="fill:white;fill-rule:nonzero;"/>
    </g>
    <g transform="matrix(1,0,0,1,-6600.3,-7104)">
        <path d="M6867.1,7181.8L6876.1,7181.8L6865,7244.6L6856,7244.6L6867.1,7181.8ZM6880.3,7165.6C6880.6,7163.9 6880.2,7162.5 6879.2,7161.3C6878.2,7160.1 6876.9,7159.5 6875.2,7159.5C6873.5,7159.5 6871.9,7160.1 6870.5,7161.3C6869.1,7162.5 6868.3,7163.9 6868,7165.6C6867.7,7167.3 6868,7168.7 6869,7169.9C6870,7171.1 6871.4,7171.6 6873.1,7171.6C6874.8,7171.6 6876.3,7171 6877.7,7169.9C6879.1,7168.7 6880,7167.2 6880.3,7165.6Z" style="fill:white;fill-rule:nonzero;"/>
    </g>
    <g transform="matrix(1,0,0,1,-6600.3,-7104)">
        <path d="M6937.2,7182L6923.4,7260C6922.6,7264.7 6921.3,7268.4 6919.6,7270.9C6917.2,7274.6 6913.4,7277.4 6908.1,7279.4C6905,7280.6 6901.8,7281.1 6898.4,7281.1C6895.7,7281.1 6893.2,7280.8 6890.9,7280.1C6885.9,7278.6 6882.6,7275.9 6881,7272.1C6879.8,7269.3 6879.5,7265.5 6880.1,7260.7L6889.2,7260.1C6888.8,7263.9 6889,7266.7 6889.9,7268.3C6890.7,7269.7 6892.4,7270.8 6894.9,7271.5C6898.7,7272.6 6902.5,7272.5 6906.2,7271.1C6909.2,7270 6911.2,7268.6 6912.2,7267.1C6913,7265.8 6913.8,7263.5 6914.4,7260L6917.4,7243.1C6912.4,7245.1 6907.4,7246 6902.2,7246C6890.5,7246 6884,7240.5 6882.7,7229.4C6881.7,7220.8 6883.1,7211.2 6887,7200.6C6889.2,7194.6 6892.8,7189.7 6897.5,7186C6902.2,7182.3 6907.3,7180.4 6912.9,7180.4C6917.6,7180.4 6922,7181.4 6926.2,7183.3C6927.3,7183.8 6928,7183.4 6928.2,7182L6937.2,7182ZM6903.8,7237.2C6909.3,7237.2 6914.4,7235.8 6919.2,7233.1L6926,7194.3C6921.7,7191 6916.8,7189.3 6911.3,7189.3C6907.9,7189.3 6904.9,7190.5 6902,7192.8C6899.1,7195.2 6897,7198.3 6895.5,7202.3C6892.1,7211.5 6890.9,7219.7 6891.7,7226.9C6892.6,7233.8 6896.6,7237.2 6903.8,7237.2Z" style="fill:white;fill-rule:nonzero;"/>
    </g>
    <g transform="matrix(1,0,0,1,-6600.3,-7104)">
        <path d="M6990.2,7184.9C6993.4,7188.4 6994.4,7194.1 6993,7201.8L6985.5,7244.5L6976.5,7244.5L6984,7201.8C6984.9,7196.6 6984.5,7193.1 6982.9,7191.3C6981.6,7189.8 6979,7189.2 6975.3,7189.3C6969.5,7189.6 6963.6,7191.5 6957.5,7194.8L6948.7,7244.5L6939.7,7244.5L6950.8,7181.7L6959.8,7181.7C6959.4,7183.6 6960.2,7184.2 6962.1,7183.5C6968,7181.6 6972.7,7180.6 6976.3,7180.4C6982.7,7180.2 6987.3,7181.6 6990.2,7184.9Z" style="fill:white;fill-rule:nonzero;"/>
    </g>
    <g transform="matrix(1,0,0,1,-6600.3,-7104)">
        <path d="M7048.6,7181.8L7057.6,7181.8L7046.5,7244.6L7037.5,7244.6L7048.6,7181.8ZM7061.8,7165.6C7062.1,7163.9 7061.7,7162.5 7060.7,7161.3C7059.7,7160.1 7058.4,7159.5 7056.7,7159.5C7055,7159.5 7053.4,7160.1 7052,7161.3C7050.6,7162.5 7049.8,7163.9 7049.5,7165.6C7049.2,7167.3 7049.5,7168.7 7050.5,7169.9C7051.5,7171.1 7052.9,7171.6 7054.6,7171.6C7056.3,7171.6 7057.8,7171 7059.2,7169.9C7060.7,7168.7 7061.6,7167.2 7061.8,7165.6Z" style="fill:white;fill-rule:nonzero;"/>
    </g>
    <g transform="matrix(1,0,0,1,-6600.3,-7104)">
        <path d="M7111.6,7184.9C7114.8,7188.4 7115.8,7194.1 7114.4,7201.8L7106.9,7244.5L7097.9,7244.5L7105.4,7201.8C7106.3,7196.6 7105.9,7193.1 7104.3,7191.3C7103,7189.8 7100.4,7189.2 7096.7,7189.3C7090.9,7189.6 7085,7191.5 7078.9,7194.8L7070.1,7244.5L7061.1,7244.5L7072.2,7181.7L7081.2,7181.7C7080.8,7183.6 7081.6,7184.2 7083.5,7183.5C7089.4,7181.6 7094.1,7180.6 7097.7,7180.4C7104.1,7180.2 7108.7,7181.6 7111.6,7184.9Z" style="fill:white;fill-rule:nonzero;"/>
    </g>
    <g transform="matrix(1,0,0,1,-6600.3,-7104)">
        <path d="M7179.5,7244.6C7170.4,7213.4 7166.7,7192.5 7168.6,7182L7177.6,7182C7176.2,7190.1 7178.6,7206.6 7185,7231.4L7206.3,7186.3L7214.9,7186.3L7220.5,7231.3C7235.5,7206.4 7243.7,7190 7245.1,7181.9L7254.1,7181.9C7252.2,7192.5 7241.4,7213.3 7221.5,7244.5L7213.1,7244.5L7207.7,7203.2L7187.9,7244.5L7179.5,7244.5L7179.5,7244.6Z" style="fill:white;fill-rule:nonzero;"/>
    </g>
    <g transform="matrix(1,0,0,1,-6600.3,-7104)">
        <path d="M7262.5,7181.8L7271.5,7181.8L7260.4,7244.6L7251.4,7244.6L7262.5,7181.8ZM7275.7,7165.6C7276,7163.9 7275.6,7162.5 7274.6,7161.3C7273.6,7160.1 7272.3,7159.5 7270.6,7159.5C7268.9,7159.5 7267.3,7160.1 7265.9,7161.3C7264.5,7162.5 7263.7,7163.9 7263.4,7165.6C7263.1,7167.3 7263.4,7168.7 7264.4,7169.9C7265.4,7171.1 7266.8,7171.6 7268.5,7171.6C7270.2,7171.6 7271.7,7171 7273.1,7169.9C7274.6,7168.7 7275.4,7167.2 7275.7,7165.6Z" style="fill:white;fill-rule:nonzero;"/>
    </g>
    <g transform="matrix(1,0,0,1,-6600.3,-7104)">
        <path d="M7299.7,7190.7L7293,7228.8C7292.4,7232.1 7292.7,7234.4 7293.9,7235.6C7295.2,7236.9 7297.7,7237.4 7301.5,7237L7300.9,7245.8C7299.7,7245.9 7298.6,7246 7297.5,7246C7292.7,7246 7289.1,7244.7 7286.6,7242.2C7283.7,7239.2 7282.8,7234.7 7283.9,7228.7L7290.6,7190.6L7279.4,7190.6L7281,7181.7L7292.2,7181.7L7296.2,7158.8L7305.2,7158.8L7301.2,7181.7L7313.3,7181.7L7311.7,7190.6L7299.7,7190.6L7299.7,7190.7Z" style="fill:white;fill-rule:nonzero;"/>
    </g>
    <g transform="matrix(1,0,0,1,-6600.3,-7104)">
        <path d="M7347.5,7180.5C7353.6,7180.5 7358.1,7182.5 7361,7186.4C7364,7190.3 7364.9,7195.6 7363.7,7202.2L7356.2,7244.6L7347.2,7244.6L7354.7,7202.2C7356.2,7193.7 7353.2,7189.4 7345.8,7189.4C7340.1,7189.4 7334.1,7190.9 7327.8,7193.8L7318.8,7244.6L7309.8,7244.6L7327.1,7146.4L7336.1,7146.4L7329.5,7184.1C7335.9,7181.7 7341.9,7180.5 7347.5,7180.5Z" style="fill:white;fill-rule:nonzero;"/>
    </g>
    <g transform="matrix(1,0,0,1,-6600.3,-7104)">
        <path d="M7421.3,7246C7413.8,7246 7408.1,7243.8 7404.2,7239.4L7411.5,7232.9C7414,7235.6 7417.8,7237 7422.9,7237.1L7423,7237.1C7427,7237.1 7430.3,7235.9 7433.1,7233.4C7435.3,7231.4 7436.6,7229 7436.9,7226.3C7437.5,7221 7434,7216.8 7426.6,7213.6L7426.1,7213.4C7421.9,7211.6 7419,7210 7417.3,7208.4C7414.4,7205.7 7413.1,7202.2 7413.5,7198C7413.8,7194.2 7415.4,7190.8 7418.3,7187.6C7421.2,7184.5 7424.7,7182.5 7428.6,7181.5C7436.6,7179.7 7443.2,7181.5 7448.6,7187.1L7441.6,7193.7C7438.2,7190.2 7434,7189 7429.2,7190.1C7427.6,7190.5 7426.1,7191.3 7424.9,7192.5C7423.5,7193.9 7422.7,7195.5 7422.5,7197.2C7422.4,7199 7423,7200.5 7424.3,7201.7C7425.4,7202.6 7427.6,7203.8 7430.9,7205.2L7431.4,7205.4C7442.1,7210 7446.9,7216.7 7445.9,7225.7C7445.3,7231 7442.8,7235.6 7438.4,7239.5C7433.5,7243.8 7427.8,7246 7421.3,7246Z" style="fill:white;fill-rule:nonzero;"/>
    </g>
    <g transform="matrix(1,0,0,1,-6600.3,-7104)">
        <path d="M7461.1,7241.1C7457.3,7237.8 7455.1,7233.5 7454.5,7228.1C7453.6,7220.1 7455.1,7210.7 7459.1,7200C7461.4,7193.7 7464.9,7188.8 7469.6,7185.5C7474.3,7182.1 7479.8,7180.4 7486.2,7180.4C7495.4,7180.4 7501.8,7184 7505.3,7191.1L7496.9,7195.9C7494.8,7191.4 7490.7,7189.2 7484.7,7189.2C7476.4,7189.2 7470.7,7193.3 7467.7,7201.5C7464.3,7210.9 7462.9,7218.9 7463.7,7225.6C7464.1,7229.1 7465.5,7231.9 7467.8,7234C7470.1,7236 7473.1,7237.1 7476.7,7237.1C7482.3,7237.1 7486.9,7234.9 7490.5,7230.6L7497.1,7235.5C7491.2,7242.5 7483.9,7246 7475.1,7246C7469.5,7246 7464.8,7244.3 7461.1,7241.1Z" style="fill:white;fill-rule:nonzero;"/>
    </g>
    <g transform="matrix(1,0,0,1,-6600.3,-7104)">
        <path d="M7513.3,7241C7509.6,7237.7 7507.6,7233.4 7507.2,7227.9C7506.4,7217.8 7508,7208.6 7511.7,7200.5C7514.7,7194 7518.8,7188.9 7523.8,7185.4C7528.8,7181.9 7534.4,7180.1 7540.5,7180.1C7546.2,7180.1 7550.6,7181.8 7553.8,7185.1C7557,7188.5 7558.5,7193.2 7558.5,7199.1C7558.5,7202.5 7558.1,7205.4 7557.3,7207.7L7556.3,7210.9L7516.3,7217.9C7516.1,7220.5 7516.1,7223.1 7516.3,7225.6C7516.6,7229.1 7517.9,7231.9 7520.1,7233.9C7522.4,7235.9 7525.4,7237 7529,7237C7534.9,7237 7540,7235 7544.1,7231.1L7550,7236.8C7543.8,7242.8 7536.3,7245.8 7527.5,7245.8C7521.8,7246 7517,7244.3 7513.3,7241ZM7520,7202.9C7519.2,7204.7 7518.5,7206.7 7517.9,7209L7549.3,7203.4C7549.4,7202.5 7549.5,7201.5 7549.5,7200.5C7549.6,7192.8 7546.1,7188.9 7539.2,7188.9C7530.6,7188.9 7524.3,7193.6 7520,7202.9Z" style="fill:white;fill-rule:nonzero;"/>
    </g>
    <g transform="matrix(1,0,0,1,-6600.3,-7104)">
        <path d="M7611.6,7184.9C7614.8,7188.4 7615.8,7194.1 7614.4,7201.8L7606.9,7244.5L7597.9,7244.5L7605.4,7201.8C7606.3,7196.6 7605.9,7193.1 7604.3,7191.3C7603,7189.8 7600.4,7189.2 7596.7,7189.3C7590.9,7189.6 7585,7191.5 7578.9,7194.8L7570.1,7244.5L7561.1,7244.5L7572.2,7181.7L7581.2,7181.7C7580.8,7183.6 7581.6,7184.2 7583.5,7183.5C7589.4,7181.6 7594.1,7180.6 7597.7,7180.4C7604,7180.2 7608.6,7181.6 7611.6,7184.9Z" style="fill:white;fill-rule:nonzero;"/>
    </g>
    <g transform="matrix(1,0,0,1,-6600.3,-7104)">
        <path d="M7629.6,7241C7625.9,7237.7 7623.9,7233.4 7623.5,7227.9C7622.7,7217.8 7624.3,7208.6 7628,7200.5C7631,7194 7635.1,7188.9 7640.1,7185.4C7645.1,7181.9 7650.7,7180.1 7656.8,7180.1C7662.5,7180.1 7666.9,7181.8 7670.1,7185.1C7673.3,7188.5 7674.8,7193.2 7674.8,7199.1C7674.8,7202.5 7674.4,7205.4 7673.6,7207.7L7672.6,7210.9L7632.6,7217.9C7632.4,7220.5 7632.4,7223.1 7632.6,7225.6C7632.9,7229.1 7634.2,7231.9 7636.4,7233.9C7638.7,7235.9 7641.7,7237 7645.3,7237C7651.2,7237 7656.3,7235 7660.4,7231.1L7666.3,7236.8C7660.1,7242.8 7652.6,7245.8 7643.8,7245.8C7638.1,7246 7633.3,7244.3 7629.6,7241ZM7636.3,7202.9C7635.5,7204.7 7634.8,7206.7 7634.2,7209L7665.6,7203.4C7665.7,7202.5 7665.8,7201.5 7665.8,7200.5C7665.9,7192.8 7662.4,7188.9 7655.5,7188.9C7647,7188.9 7640.6,7193.6 7636.3,7202.9Z" style="fill:white;fill-rule:nonzero;"/>
    </g>
    <g transform="matrix(1,0,0,1,-6600.3,-7104)">
        <path d="M7694.3,7150.7L7703.3,7150.7L7686.8,7244.6L7677.8,7244.6L7694.3,7150.7Z" style="fill:white;fill-rule:nonzero;"/>
    </g>
    <g transform="matrix(1,0,0,1,-6600.3,-7104)">
        <path d="M7702.4,7244.6L7718.6,7150.7L7743.3,7150.7C7759.9,7150.7 7768.3,7157.2 7768.5,7170.2C7768.5,7173.2 7767.3,7182.2 7764.8,7197C7762.1,7213.1 7759.9,7222.9 7758.2,7226.6C7755.3,7232.9 7751.3,7237.4 7746.4,7240.3C7741.5,7243.1 7735.1,7244.6 7727.2,7244.6L7702.4,7244.6ZM7713,7235.7L7728.9,7235.7C7735.2,7235.7 7740,7234.7 7743.2,7232.8C7745.8,7231.2 7748.1,7228.4 7750.1,7224.2C7751.4,7221.5 7753.3,7212.7 7755.9,7197.8C7758.4,7183.5 7759.6,7174.8 7759.6,7171.9C7759.5,7167.8 7758.4,7164.8 7756.2,7162.9C7753.5,7160.7 7748.7,7159.6 7742,7159.6L7726.4,7159.6L7713,7235.7Z" style="fill:white;fill-rule:nonzero;"/>
    </g>
    <g transform="matrix(1,0,0,1,-6600.3,-7104)">
        <path d="M6728.8,7296L6600.3,7296L6600.3,7104L6792.4,7104L6792.4,7232.5C6792.4,7267.6 6763.9,7296 6728.8,7296Z" style="fill:rgb(230,57,23);fill-rule:nonzero;"/>
    </g>
    <g transform="matrix(1,0,0,1,-6600.3,-7104)">
        <path d="M6640.3,7127.8L6610.7,7295.6L6610.6,7296.3L6627.9,7296.3L6657.6,7127.8L6640.3,7127.8Z" style="fill:white;fill-rule:nonzero;"/>
    </g>
    <g transform="matrix(1,0,0,1,-6600.3,-7104)">
        <path d="M6725.7,7127.8L6681.1,7127.8L6652,7296.3L6697,7296.3C6711.1,7296.3 6722.7,7293.7 6731.5,7288.6C6740.3,7283.5 6747.4,7275.2 6752.7,7264C6755.8,7257.5 6759.8,7239.7 6764.6,7211.1C6769.2,7184.3 6771.3,7168.6 6771.3,7163.1C6770.9,7139.7 6755.6,7127.8 6725.7,7127.8ZM6725,7274.1C6719.5,7277.5 6711,7279.2 6699.9,7279.2L6672.4,7279.2L6695.6,7144.7L6723,7144.7C6734.8,7144.7 6743.2,7146.7 6747.9,7150.5C6751.7,7153.7 6753.7,7158.9 6753.8,7166.1C6753.9,7171.3 6751.7,7186.8 6747.3,7212.2C6742.8,7238.5 6739.3,7254.2 6737,7259C6733.6,7266.3 6729.5,7271.4 6725,7274.1Z" style="fill:white;fill-rule:nonzero;"/>
    </g>
</svg>
